<?xml version="1.0" standalone="no"?>
<!DOCTYPE svg PUBLIC "-//W3C//DTD SVG 20010904//EN"
 "http://www.w3.org/TR/2001/REC-SVG-20010904/DTD/svg10.dtd">
<svg version="1.0" xmlns="http://www.w3.org/2000/svg"
 width="524.000000pt" height="524.000000pt" viewBox="0 0 524.000000 524.000000"
 preserveAspectRatio="xMidYMid meet">
<metadata>
Created by potrace 1.11, written by Peter Selinger 2001-2013
</metadata>
<g transform="translate(0.000000,524.000000) scale(0.100000,-0.100000)"
fill="#000000" stroke="none">
<path d="M1495 5210 c-126 -62 -531 -256 -535 -257 -3 0 -36 -16 -75 -36 -65
-33 -407 -199 -500 -242 -22 -11 -43 -23 -46 -28 -3 -5 -10 -8 -15 -8 -5 0
-46 -18 -92 -40 l-83 -40 5 -37 c4 -20 9 -53 11 -72 3 -19 10 -66 15 -105 6
-38 13 -88 15 -110 3 -22 7 -47 10 -55 2 -8 7 -37 10 -65 2 -27 8 -68 11 -90
4 -22 8 -51 9 -65 4 -32 14 -99 20 -125 2 -11 7 -46 10 -78 4 -32 8 -68 11
-80 2 -12 7 -42 10 -67 3 -25 7 -52 9 -60 2 -8 7 -40 10 -70 3 -30 7 -62 9
-70 1 -8 6 -37 10 -65 4 -27 10 -61 12 -75 2 -14 7 -47 10 -75 3 -27 8 -61 11
-75 2 -14 6 -38 8 -55 2 -16 5 -43 8 -60 10 -55 19 -115 22 -140 1 -14 4 -27
6 -29 2 -1 87 -63 189 -136 180 -130 321 -233 349 -254 11 -9 12 -1 6 44 -5
30 -9 62 -10 70 0 9 -3 20 -6 25 -7 13 -3 319 5 370 3 22 8 54 10 70 8 50 15
87 31 150 9 33 18 70 20 81 16 73 117 292 183 399 23 37 136 197 155 220 5 6
105 143 223 305 118 162 265 364 327 449 61 84 124 170 138 190 14 20 62 87
108 149 53 73 77 114 69 117 -11 4 -93 22 -183 41 -11 2 -81 17 -155 33 -74
17 -147 33 -162 36 -72 14 -85 17 -118 25 -44 12 -38 13 -85 -10z"/>
<path d="M4340 5219 c-19 -4 -55 -10 -80 -13 -25 -4 -56 -8 -70 -10 -14 -2
-52 -7 -85 -10 -32 -4 -62 -9 -66 -12 -4 -2 -31 -6 -61 -9 -29 -2 -62 -6 -73
-8 -11 -3 -40 -8 -65 -11 -25 -3 -56 -8 -70 -11 -14 -2 -77 -11 -140 -20 -63
-9 -125 -18 -138 -20 -12 -1 -50 -6 -85 -10 -34 -4 -65 -9 -68 -11 -4 -2 -31
-6 -60 -9 -30 -3 -67 -8 -84 -11 -16 -3 -39 -7 -50 -8 -64 -9 -133 -19 -150
-22 -35 -7 -100 -16 -135 -19 -19 -2 -54 -7 -78 -10 -24 -4 -49 -8 -55 -9 -23
-3 -36 -17 -123 -138 -49 -68 -92 -127 -97 -133 -4 -5 -25 -35 -47 -65 -22
-30 -43 -59 -47 -65 -5 -5 -32 -43 -61 -83 l-53 -74 48 7 c454 59 851 -25
1198 -253 94 -62 249 -175 253 -184 2 -5 10 -8 18 -8 8 0 14 -3 14 -7 0 -5 17
-19 38 -33 20 -13 53 -36 72 -51 19 -14 62 -45 95 -70 33 -24 62 -47 63 -51 2
-5 8 -8 13 -8 5 0 17 -7 26 -14 10 -8 83 -62 163 -119 80 -58 152 -111 160
-118 9 -8 36 -27 60 -44 25 -16 91 -65 148 -107 56 -43 107 -78 112 -78 4 0
10 -3 12 -8 5 -13 149 -115 154 -110 2 3 6 14 8 24 3 11 16 73 31 139 15 66
29 131 31 145 3 14 21 96 40 182 18 86 34 163 34 170 0 7 -23 60 -52 118 -28
58 -52 107 -53 110 0 3 -27 59 -59 125 -61 124 -181 373 -291 600 -220 456
-212 441 -237 441 -12 0 -39 -3 -58 -7z"/>
<path d="M4294 3039 c21 -126 26 -329 13 -464 -6 -58 -27 -167 -52 -269 -19
-80 -89 -254 -139 -346 -47 -89 -163 -261 -254 -377 -9 -12 -24 -31 -32 -43
-8 -12 -42 -59 -75 -104 -33 -44 -83 -112 -110 -151 -27 -38 -52 -72 -55 -75
-3 -3 -43 -57 -88 -120 -46 -63 -102 -140 -125 -172 -23 -31 -49 -66 -57 -78
-8 -12 -78 -107 -154 -212 -140 -192 -147 -206 -96 -209 17 -1 16 0 140 -27
52 -11 183 -40 291 -63 l197 -42 88 42 c49 23 96 47 104 52 8 5 25 13 37 19
12 5 84 39 160 76 76 37 192 92 258 124 131 63 455 220 632 307 l113 55 -5 36
c-3 21 -7 47 -9 59 -3 12 -7 50 -11 84 -4 35 -8 66 -10 69 -2 3 -6 30 -10 60
-13 112 -24 186 -35 252 -6 31 -10 60 -9 65 1 4 0 10 -1 13 -3 9 -7 33 -15 90
-4 30 -9 64 -11 75 -2 11 -6 38 -8 60 -3 22 -7 54 -9 70 -15 89 -28 173 -43
290 -3 28 -8 59 -10 70 -2 10 -6 37 -9 60 -4 22 -8 51 -10 65 -2 14 -6 45 -10
70 -3 25 -10 72 -16 105 -5 33 -11 73 -12 90 -2 30 -37 61 -191 170 -53 38
-229 166 -251 183 -5 4 -34 25 -64 46 l-54 38 7 -43z"/>
<path d="M285 2328 c-10 -44 -65 -303 -70 -328 -3 -14 -7 -34 -9 -45 -3 -11
-17 -78 -32 -148 l-27 -128 36 -72 c19 -40 75 -153 122 -252 48 -99 119 -245
157 -325 39 -80 102 -210 141 -290 38 -80 101 -210 140 -290 39 -80 69 -149
68 -153 -1 -8 23 -6 114 10 17 3 48 6 70 8 22 2 67 9 100 14 33 6 81 13 106
16 25 3 56 8 70 10 13 3 44 7 69 10 25 3 56 7 70 10 14 3 49 8 79 11 30 3 58
7 61 9 3 2 33 6 65 10 33 3 67 8 75 10 8 2 38 7 65 10 28 4 61 8 75 10 14 3
43 7 65 10 22 4 51 8 65 10 14 2 48 7 75 10 52 7 86 12 121 19 11 2 45 7 75
10 30 3 63 8 74 10 11 2 45 7 75 11 30 3 69 9 85 12 17 3 40 6 52 7 21 2 37
21 293 373 14 18 49 68 79 109 l53 76 -38 -6 c-170 -26 -414 -26 -559 -1 -127
22 -292 70 -385 112 -30 14 -71 32 -90 41 -56 25 -207 118 -284 176 -39 29
-100 74 -136 100 -36 26 -73 54 -83 62 -9 8 -22 14 -27 14 -6 0 -10 3 -10 8 0
4 -18 18 -40 32 -22 14 -40 28 -40 32 0 5 -7 8 -15 8 -8 0 -15 4 -15 8 0 4
-15 16 -32 27 -18 10 -35 21 -38 25 -8 10 -848 620 -854 620 -3 0 -8 -10 -11
-22z"/>
</g>
</svg>
